<svg xmlns="http://www.w3.org/2000/svg" viewBox="0 0 400 400" width="400" height="400">
  <circle cx="200" cy="200" r="190" fill="#311B92" />
  <g transform="translate(100, 100)">
    <!-- Heart shape representing donation/giving -->
    <path d="M100,160 C120,140 140,120 150,100 C160,80 155,60 140,50 C125,40 105,50 100,70 C95,50 75,40 60,50 C45,60 40,80 50,100 C60,120 80,140 100,160 Z" fill="#9575CD"/>
    <path d="M70,180 L50,160 C40,150 35,135 40,120 L35,140 L45,170 C50,185 60,195 75,200 L70,180 Z" fill="#9575CD"/>
    <path d="M130,180 L150,160 C160,150 165,135 160,120 L165,140 L155,170 C150,185 140,195 125,200 L130,180 Z" fill="#9575CD"/>
    <!-- Plus symbol for giving -->
    <path d="M100,90 L85,110 L95,110 L95,140 L105,140 L105,110 L115,110 Z" fill="#FFFFFF"/>
  </g>
  <text x="200" y="270" font-family="sans-serif" font-size="32" font-weight="bold" fill="#FFFFFF" text-anchor="middle">DONATIO</text>
  <text x="200" y="300" font-family="sans-serif" font-size="16" fill="#B39DDB" text-anchor="middle">Connect, Donate, Transform</text>
</svg>
